# xmcd
#
# Track frame offsets:
#	150
#	4482
#	8120
#	9701
#	12459
#	15702
#	20264
#	25323
#	30191
#	34267
#	39339
#	46275
#	52576
#	55865
#	68449
#	72276
#	77980
#	91569
#	93001
#	98532
#	109651
#	113675
#	125026
#	130083
#	146582
#	156986
#	165692
#	175237
#	178678
#	185803
#	189712
#	195389
#	204396
#	219939
#	226770
#	234321
#	246753
#	267410
#	273599
#
# Disc length: 3791 seconds
#
# Revision: 0
# Processed by: cddbd v1.5.2PL0 Copyright (c) Steve Scherf et al.
# Submitted via: EZCDAudioConverter 2.1.7.1
#
DISCID=f90ecd27
DTITLE=V/A - Black and Blue 2/4
DYEAR=1900
DGENRE=
TTITLE0=Dap Sugar Willie - White Boys
TTITLE1=Dap Sugar Willie - Grudge Pregnancy
TTITLE2=Dap Sugar Willie - Soldiers
TTITLE3=Dap Sugar Willie - Coulda Been Worse
TTITLE4=Dap Sugar Willie - Strike
TTITLE5=Dap Sugar Willie - Life Insurance
TTITLE6=Dap Sugar Willie - Cancer
TTITLE7=Dap Sugar Willie - Pickle Slicer
TTITLE8=Dap Sugar Willie - Dear Friend
TTITLE9=Dap Sugar Willie - Wife 
TTITLE10=Dap Sugar Willie - Marriage
TTITLE11=Dap Sugar Willie - Up To Hi, Down To Lo
TTITLE12=Dap Sugar Willie - Poor Or Poe
TTITLE13=Dap Sugar Willie - Davy Crockett
TTITLE14=Dap Sugar Willie - I'm A Witch
TTITLE15=Dap Sugar Willie - Room 613
TTITLE16=Dap Sugar Willie - Playing House
TTITLE17=Dap Sugar Willie - Dentist
TTITLE18=Dap Sugar Willie - Duck You
TTITLE19=Dap Sugar Willie - Lion Tamer
TTITLE20=Dap Sugar Willie - Lady Of The Evening
TTITLE21=Jimmy Lynch - Stutter On Brother
TTITLE22=Jimmy Lynch - Squirrel Cracked Nuts
TTITLE23=Jimmy Lynch - White Ass On Fire
TTITLE24=Jimmy Lynch - My Name Is - ____
TTITLE25=Jimmy Lynch - Dog Eatin' Nigger
TTITLE26=Jimmy Lynch - You Got Worms
TTITLE27=Jimmy Lynch - Tricky Dick and Pussy
TTITLE28=Jimmy Lynch - B-R-R-R-R
TTITLE29=Jimmy Lynch - Watch Out For The Bull
TTITLE30=Wildman Steve - Eatin' Pussy
TTITLE31=Wildman Steve - Black People
TTITLE32=Wildman Steve - The Claps
TTITLE33=Wildman Steve - Tell The Truth
TTITLE34=Wildman Steve - Can't Satisfy You
TTITLE35=Wildman Steve - Is That You?
TTITLE36=Wildman Steve - Oakland, Calif.
TTITLE37=Wildman Steve - The Handicapped
TTITLE38=Wildman Steve - Pig Fucker
EXTD=
EXTT0=
EXTT1=
EXTT2=
EXTT3=
EXTT4=
EXTT5=
EXTT6=
EXTT7=
EXTT8=
EXTT9=
EXTT10=
EXTT11=
EXTT12=
EXTT13=
EXTT14=
EXTT15=
EXTT16=
EXTT17=
EXTT18=
EXTT19=
EXTT20=
EXTT21=
EXTT22=
EXTT23=
EXTT24=
EXTT25=
EXTT26=
EXTT27=
EXTT28=
EXTT29=
EXTT30=
EXTT31=
EXTT32=
EXTT33=
EXTT34=
EXTT35=
EXTT36=
EXTT37=
EXTT38=
PLAYORDER=
